<svg xmlns="http://www.w3.org/2000/svg" width="512" height="512" viewBox="0 0 512 512">
  <defs>
    <radialGradient id="bg" cx="30%" cy="20%" r="90%">
      <stop offset="0%" stop-color="#2B2419"/>
      <stop offset="100%" stop-color="#15120D"/>
    </radialGradient>
    <linearGradient id="grad" x1="0" y1="0" x2="0" y2="512" gradientUnits="userSpaceOnUse">
      <stop offset="0%" stop-color="#35D6C0"/>
      <stop offset="100%" stop-color="#FF8A3D"/>
    </linearGradient>
  </defs>

  <rect width="512" height="512" fill="url(#bg)"/>

  <!-- arched carry handle -->
  <path
    d="M146,132 Q256,26 366,132"
    fill="none"
    stroke="url(#grad)"
    stroke-width="16"
    stroke-linecap="round"
  />

  <!-- air fryer body outline -->
  <rect x="112" y="118" width="288" height="52" rx="26" fill="none" stroke="url(#grad)" stroke-width="14"/>
  <path
    d="M132,164 L380,164 L358,368 Q356,392 330,392 L182,392 Q156,392 154,368 Z"
    fill="none"
    stroke="url(#grad)"
    stroke-width="14"
    stroke-linejoin="round"
  />

  <!-- digital display -->
  <rect x="216" y="192" width="80" height="40" rx="8" fill="none" stroke="url(#grad)" stroke-width="10"/>
  <line x1="230" y1="212" x2="240" y2="212" stroke="url(#grad)" stroke-width="8" stroke-linecap="round"/>
  <line x1="256" y1="212" x2="266" y2="212" stroke="url(#grad)" stroke-width="8" stroke-linecap="round"/>

  <!-- control buttons -->
  <circle cx="222" cy="256" r="8" fill="none" stroke="url(#grad)" stroke-width="7"/>
  <circle cx="256" cy="256" r="8" fill="none" stroke="url(#grad)" stroke-width="7"/>
  <circle cx="290" cy="256" r="8" fill="none" stroke="url(#grad)" stroke-width="7"/>

  <!-- drawer handle -->
  <rect x="198" y="326" width="116" height="18" rx="9" fill="none" stroke="url(#grad)" stroke-width="9"/>
</svg>
